<svg width="45" height="40" viewBox="0 0 45 40" fill="none" xmlns="http://www.w3.org/2000/svg">
<path d="M4.49992 -1.90735e-06C3.30647 -1.90735e-06 2.1619 0.468252 1.318 1.30175C0.474099 2.13524 4.91777e-07 3.2657 4.91777e-07 4.44444L4.91777e-07 15.2978C4.91777e-07 16.4765 0.474099 17.607 1.318 18.4405C2.1619 19.274 3.30647 19.7422 4.49992 19.7422H10.7458C10.7458 21.3037 10.6528 22.8652 10.4668 24.4267C10.1878 26.08 9.72282 27.5496 9.07183 28.8356C8.42085 30.1215 7.58236 31.1333 6.55638 31.8711C5.5364 32.6978 4.23442 33.1111 2.65045 33.1111V40C5.2544 40 7.53436 39.4489 9.49033 38.3467C11.4328 37.2583 13.1016 35.7513 14.3727 33.9378C15.6525 31.9416 16.5948 29.753 17.1627 27.4578C17.737 24.9256 18.0178 22.3371 17.9997 19.7422V4.44444C17.9997 3.2657 17.5256 2.13524 16.6817 1.30175C15.8378 0.468252 14.6932 -1.90735e-06 13.4998 -1.90735e-06H4.49992ZM31.4994 -1.90735e-06C30.306 -1.90735e-06 29.1614 0.468252 28.3175 1.30175C27.4736 2.13524 26.9995 3.2657 26.9995 4.44444V15.2978C26.9995 16.4765 27.4736 17.607 28.3175 18.4405C29.1614 19.274 30.306 19.7422 31.4994 19.7422H37.7453C37.7453 21.3037 37.6523 22.8652 37.4663 24.4267C37.1843 26.08 36.7193 27.5496 36.0713 28.8356C35.4204 30.1215 34.5819 31.1333 33.5559 31.8711C32.5359 32.6978 31.2339 33.1111 29.65 33.1111V40C32.2539 40 34.5339 39.4489 36.4898 38.3467C38.4323 37.2583 40.1011 35.7513 41.3722 33.9378C42.652 31.9416 43.5943 29.753 44.1622 27.4578C44.7365 24.9256 45.0173 22.3371 44.9992 19.7422L44.9992 4.44444C44.9992 3.2657 44.5251 2.13524 43.6812 1.30175C42.8373 0.468252 41.6927 -1.90735e-06 40.4993 -1.90735e-06H31.4994Z" fill="#450027"/>
</svg>
