<svg width="50" height="50" viewBox="0 0 50 50" fill="none" xmlns="http://www.w3.org/2000/svg">
<g clip-path="url(#clip0_2091_163)">
<path d="M50.0004 25.1533C50.0004 11.2596 38.8066 -0.00292969 25.0004 -0.00292969C11.1879 0.000195313 -0.00585938 11.2596 -0.00585938 25.1564C-0.00585938 37.7096 9.13789 48.1158 21.0879 50.0033V32.4252H14.7441V25.1564H21.0941V19.6096C21.0941 13.3064 24.8285 9.8252 30.5379 9.8252C33.2754 9.8252 36.1348 10.3158 36.1348 10.3158V16.5033H32.9816C29.8785 16.5033 28.9098 18.4439 28.9098 20.4346V25.1533H35.841L34.7348 32.4221H28.9066V50.0002C40.8566 48.1127 50.0004 37.7064 50.0004 25.1533Z" fill="white"/>
</g>
<defs>
<clipPath id="clip0_2091_163">
<rect width="50" height="50" fill="white"/>
</clipPath>
</defs>
</svg>
