<svg width="178" height="181" viewBox="0 0 178 181" fill="none" xmlns="http://www.w3.org/2000/svg">
<path d="M60.2664 95.2615C69.7579 100.974 77.9552 105.908 81.1824 112.984C81.4002 113.461 81.8712 113.767 82.3876 113.767C82.904 113.767 83.3749 113.461 83.5928 112.984C86.82 105.908 95.0182 100.974 104.509 95.2615C120.692 85.5214 140.833 73.3982 140.831 44.4194C140.462 29.3662 129.075 16.4652 114.348 14.412C103.218 12.8565 89.3676 17.9255 82.3866 36.2404C75.4057 17.9264 61.5532 12.8631 50.4264 14.412C35.6978 16.4652 24.3123 29.3662 23.9424 44.4524C23.9424 73.3982 44.0833 85.5214 60.2664 95.2615Z" fill="#540030"/>
<mask id="mask0_2091_192" style="mask-type:luminance" maskUnits="userSpaceOnUse" x="5" y="108" width="168" height="61">
<path d="M5.22168 108.6H172.709V168.209H5.22168V108.6Z" fill="white"/>
</mask>
<g mask="url(#mask0_2091_192)">
<path d="M171.383 124.655H144.879C144.639 122.564 143.644 118.578 139.676 115.473C132.174 109.601 118.244 109.921 98.4058 116.392L97.6688 116.554C88.4536 118.582 83.3768 119.701 74.7513 117.223L73.8362 116.958C68.7132 115.465 59.1744 112.685 53.585 116.073C51.6817 117.227 50.4237 118.978 49.8415 121.285C32.2389 108.103 23.1572 109.213 19.6306 110.678C14.7708 109.087 11.4843 108.089 8.54916 109.543C6.87299 110.378 5.665 112.091 5.39986 114.013C5.15789 115.758 5.7197 117.404 6.9416 118.526C9.04422 120.457 11.4797 122.796 14.2989 125.507C21.011 131.956 29.365 139.983 37.8357 146.833C43.6402 151.649 46.7033 153.194 54.1042 153.239C54.755 153.587 55.3752 153.882 55.9723 154.104C67.3698 158.401 97.3971 165.659 110.376 167.261C114.201 167.888 117.271 168.144 120.975 168.144H171.383C172.116 168.144 172.712 167.538 172.712 166.793V126.009C172.712 125.261 172.116 124.655 171.383 124.655ZM16.1216 123.541C13.2893 120.82 10.8446 118.469 8.72067 116.52C7.95954 115.82 7.96046 114.884 8.02814 114.388C8.17276 113.342 8.81987 112.415 9.71265 111.969C11.4278 111.119 13.7816 111.651 17.0922 112.694C16.6686 113.308 16.3459 114 16.1837 114.765C15.811 116.54 16.2467 118.351 17.3778 119.735C21.303 124.549 27.7305 130.183 35.175 136.708C40.1377 141.057 45.2607 145.555 50.2178 150.307C46.1785 149.778 43.7292 148.238 39.4971 144.727C31.1051 137.937 22.7975 129.955 16.1216 123.541ZM170.055 165.439H120.975C117.423 165.439 114.474 165.193 110.748 164.584C97.856 162.991 68.1606 155.815 56.8901 151.565C56.3171 151.353 55.7219 151.072 55.0915 150.719C54.1079 150.142 53.2179 149.471 52.4456 148.72C47.3179 143.783 42.0271 139.147 36.9123 134.661C29.5587 128.216 23.2091 122.649 19.4248 118.009C18.8166 117.264 18.583 116.288 18.7851 115.33C18.9724 114.443 19.5212 113.714 20.287 113.333C20.9739 112.993 22.3006 112.526 24.4078 112.526C28.9088 112.526 36.9652 114.656 49.898 124.703C50.7899 126.898 53.2661 128.686 57.3295 130.041C63.0459 131.569 72.3102 135.077 77.158 137.55C80.8014 139.397 85.079 140.347 90.2354 140.461C90.9483 140.476 91.6724 140.483 92.4001 140.49C95.4901 140.523 98.6858 140.557 101.11 141.201C102.882 141.788 103.858 142.112 105.165 144.362C105.537 145.004 106.353 145.216 106.985 144.838C107.617 144.458 107.826 143.63 107.452 142.987C105.635 139.859 103.919 139.291 101.933 138.632C101.907 138.624 101.767 138.577 101.741 138.571C99.0381 137.857 95.6774 137.821 92.428 137.787C91.7095 137.779 90.9938 137.772 90.292 137.757C85.536 137.653 81.6274 136.795 78.3456 135.132C73.369 132.595 63.8645 128.995 58.0814 127.451C53.6583 125.972 52.5485 124.332 52.2843 123.482C52.2815 123.473 52.2788 123.465 52.2769 123.457C52.1128 122.908 52.2472 122.533 52.2445 122.533C52.2908 122.435 52.327 122.334 52.3492 122.228C52.7293 120.475 53.5767 119.22 54.9441 118.391C59.548 115.599 68.702 118.27 73.102 119.552L74.0291 119.82C83.2925 122.481 88.9134 121.242 98.2278 119.192L99.0881 118.996C122.798 111.271 133.338 113.96 138.004 117.576C142.439 121.009 142.3 125.742 142.292 125.936C142.274 126.305 142.405 126.667 142.655 126.936C142.906 127.205 143.254 127.355 143.618 127.355H170.051V165.439H170.055Z" fill="#540030"/>
</g>
</svg>
