<svg width="180" height="215" viewBox="0 0 180 215" fill="none" xmlns="http://www.w3.org/2000/svg">
<path d="M118.645 1.2987C118.334 1.73473 117.466 2.8871 116.69 3.8526C115.914 4.8181 114.61 6.68681 113.741 7.96376C112.903 9.24071 111.507 11.2028 110.638 12.3241C109.769 13.4453 108.279 15.4386 107.348 16.7778C106.417 18.1171 104.928 20.2038 104.028 21.4184C103.128 22.6331 102.041 24.2527 101.576 25.0624C101.141 25.8411 100.241 27.3672 99.5897 28.4572C98.9069 29.5473 98.3793 30.6374 98.3793 30.9177C98.3793 31.6652 100.521 34.6551 101.7 35.5583C102.259 35.9944 102.724 36.5861 102.724 36.8664C102.693 37.1467 102.103 38.486 101.39 39.7941C100.676 41.1333 99.2793 43.7495 98.2552 45.6182C95.8966 50.072 95.7724 50.1654 93.6621 49.6982C90.3724 48.9819 88.6655 50.3523 85.8724 55.9584C83.8241 59.9761 79.6966 66.392 77.2448 69.3196C76.0345 70.7523 74.2034 73.1816 73.1793 74.7078C72.1241 76.265 70.6655 78.3206 69.8586 79.3172C68.369 81.1548 64.2414 88.5985 63.6517 90.4983C63.1862 91.9622 62.3793 92.8342 59.431 95.0455C58.0655 96.0422 56.0172 97.7863 54.869 98.8452C52.6034 100.994 47.4828 107.192 45.3103 110.431C42.5483 114.542 42.269 114.978 41.4931 116.505C40.2207 119.027 36.3724 124.384 34.8207 125.786C34.0448 126.502 32.1828 128.215 30.7241 129.585C29.2345 130.956 26.8448 133.167 25.3862 134.475C23.9276 135.783 22.5 137.372 22.1897 138.026C20.9793 140.611 22.5 142.884 26.2241 144.037C30.3828 145.345 33.2069 144.722 40.4069 140.953C43.7586 139.178 43.9759 139.863 41.0897 142.978C40.0034 144.161 37.0552 147.494 34.5724 150.359C30.1034 155.467 29.1414 156.308 28.4586 155.623C27.7138 154.875 26.4724 155.28 24.8276 156.744C23.1207 158.27 15.7345 166.71 11.7 171.725C10.3655 173.407 8.81379 175.244 8.25517 175.836C7.69655 176.428 6.3931 178.047 5.4 179.387C1.27241 184.961 0 186.892 0 187.671C0 188.699 0.962069 189.789 4.81034 193.122C6.51724 194.585 8.16207 196.143 8.47241 196.547C9.49655 197.949 12.9414 200.036 19.0552 203.057C22.3759 204.707 25.2621 206.047 25.4172 206.047C25.6034 206.047 27.8069 206.95 30.3207 208.009C32.8655 209.099 35.6897 210.251 36.6207 210.563C37.5517 210.874 39.5069 211.591 40.9655 212.213C44.5345 213.677 47.0793 214.487 48.1655 214.518C49.3448 214.549 51.4862 212.494 52.9138 209.94C53.4724 208.912 54.7448 207.012 55.7069 205.735C59.7724 200.378 61.8517 197.669 63.6207 195.457C64.6448 194.18 66.0414 192.281 66.7552 191.253C67.9655 189.415 68.1207 188.761 67.6241 187.079C67.531 186.799 67.8724 186.55 68.5862 186.363C69.1759 186.207 70.2 185.927 70.8828 185.771C72.0621 185.46 75.1345 182.657 76.3759 180.819C76.8724 180.072 77.0276 180.041 79.4793 180.134C81.7759 180.227 82.2103 180.165 83.1724 179.511C84.5069 178.608 86.7724 175.306 87.2379 173.562C87.7966 171.413 87.8897 171.32 89.8759 171.164C91.3655 171.04 91.9552 170.822 93.0103 169.95C94.6862 168.61 95.1207 167.956 95.7724 165.683C96.4241 163.347 96.6724 163.066 97.9759 163.066C99.9 163.066 101.328 162.039 102.383 159.921C103.283 158.114 103.345 157.741 103.345 154.626C103.345 151.823 103.469 150.982 104.09 149.456C104.99 147.245 105.828 144.379 105.828 143.538C105.828 143.196 105.983 142.48 106.169 141.981C106.448 141.171 106.914 140.829 109.49 139.739C114.269 137.683 116.255 136.562 118.272 134.787C119.297 133.915 120.259 133.167 120.414 133.167C120.538 133.167 121.593 132.233 122.71 131.112C124.231 129.585 125.131 128.34 126.031 126.471C127.179 124.073 127.272 123.699 127.521 120.055C127.738 116.629 127.893 115.975 128.762 114.262C129.538 112.705 129.786 111.646 130.066 109.123C130.252 107.223 130.624 105.479 130.966 104.825C131.276 104.233 131.959 102.894 132.486 101.897C133.603 99.7796 133.728 97.942 132.983 95.0767C132.3 92.4293 132.393 91.6818 133.603 89.8754C134.193 88.9722 134.69 87.9444 134.69 87.5395C134.69 87.1347 134.969 85.92 135.31 84.8299C136.117 82.2137 136.086 80.563 135.155 78.3517C134.721 77.3239 134.379 76.265 134.379 75.9536C134.379 75.1126 135.279 73.8045 137.917 70.7835C140.71 67.6067 141.176 67.4509 143.162 69.2885C144.807 70.7835 145.583 71.1884 146.762 71.1884C147.383 71.1884 147.848 70.9392 148.19 70.472C150.921 66.5477 153.372 63.2775 154.862 61.5022C155.824 60.3187 158.431 56.6436 160.634 53.3422C162.807 50.072 165.414 46.2723 166.407 44.933C167.431 43.6249 169.076 41.1022 170.1 39.358C171.124 37.6139 172.303 35.8075 172.707 35.3092C173.11 34.8109 173.979 33.4093 174.631 32.1947C175.283 30.9489 176.741 28.613 177.89 26.9934C179.069 25.3739 180 23.7855 180 23.5052C180 22.8823 177.61 20.7644 174.724 18.8957C173.234 17.8991 171.155 17.027 166.655 15.5632C163.334 14.4419 160.2 13.3519 159.672 13.1338C159.176 12.8847 157.624 12.3241 156.259 11.888C154.893 11.452 152.534 10.6422 150.983 10.1439C149.462 9.61445 146.855 8.77353 145.241 8.24406C143.628 7.74574 141.61 7.06055 140.741 6.7491C139.903 6.4065 138.352 5.90818 137.328 5.59673C136.303 5.31642 133.852 4.53779 131.897 3.8526C121.128 0.177476 119.638 -0.10283 118.645 1.2987ZM108.248 41.3825C109.397 42.4726 110.824 43.6872 111.414 44.0921C112.003 44.497 112.997 45.2756 113.586 45.8362C114.176 46.3657 115.945 47.6738 117.466 48.7327C121.407 51.3801 124.448 53.6225 125.534 54.6503C126.031 55.1175 126.962 55.8338 127.552 56.2387C128.141 56.6436 129.476 57.7025 130.5 58.5746C131.524 59.4466 132.641 60.3499 133.014 60.599C134.814 61.8448 136.21 63.0595 137.266 64.243C138.755 65.8937 138.631 66.5477 136.241 69.1328C135.279 70.1606 134.038 71.6867 133.51 72.4964C132.952 73.3062 132.145 74.2094 131.648 74.552C129.321 76.2339 111.197 82.8366 98.5655 86.6052C95.5552 87.5084 90.2172 88.1936 88.8828 87.8821C88.1379 87.6953 88.0759 87.5395 88.231 86.6052C88.3241 85.9823 89.5345 83.9267 91.2103 81.5285C95.7724 75.0192 98.069 69.3508 99.1552 61.8137C99.8379 57.2665 99.6517 55.3355 98.4103 53.5602C97.8828 52.8439 97.4483 52.0652 97.4483 51.8784C97.4483 51.6604 98.5034 49.6671 99.7759 47.3935C101.048 45.1199 102.103 43.1577 102.103 43.002C102.103 42.8774 102.662 42.0054 103.345 41.071C105.052 38.8286 105.61 38.8597 108.248 41.3825ZM95.0276 53.6225C97.0138 55.5224 97.5103 57.796 96.7034 61.3776C96.4552 62.4054 96.1759 63.9315 96.0517 64.8036C95.5552 68.7279 92.1103 76.1093 88.7897 80.4696C85.3759 84.9545 84.4448 88.1002 85.9655 89.7197C86.7414 90.5295 86.7724 90.5606 90.1552 90.4049C95.369 90.1869 102.414 88.4739 109.707 85.702C112.283 84.7053 115.572 83.5841 117.062 83.2104C118.552 82.8055 120.941 81.9957 122.338 81.404C125.441 80.0647 130.966 78.0403 131.493 78.0403C131.679 78.0403 132.145 78.414 132.486 78.8501C133.603 80.2516 133.231 84.3005 131.71 87.5707C130.531 90.1246 126.993 92.3359 121.159 94.2046C117.838 95.2635 114.61 96.8831 114.083 97.7551C113.648 98.4403 114.207 99.4058 115.014 99.3435C115.355 99.3124 117.341 98.5649 119.452 97.6929C121.562 96.8208 123.548 96.1045 123.859 96.1045C124.169 96.1045 125.534 95.5438 126.9 94.8586C128.266 94.1735 129.6 93.6128 129.848 93.6128C130.593 93.6128 130.997 94.7341 131.183 97.1945C131.369 99.4681 131.338 99.5304 130.066 101.679C128.266 104.638 126.31 106.382 123.021 107.94C119.452 109.653 118.179 110.587 118.303 111.459C118.459 112.674 119.793 112.456 123.3 110.712C126.776 108.967 127.552 108.905 127.552 110.369C127.552 112.705 123.548 117.75 119.793 120.18C117.59 121.581 117.093 122.142 117.528 122.827C118.241 124.01 120.103 123.356 123.455 120.803C124.2 120.242 124.945 119.868 125.131 119.962C125.659 120.304 125.069 123.855 124.231 125.381C122.803 127.872 121.934 128.838 119.048 130.956C113.959 134.724 110.855 136.469 105.114 138.742C102.103 139.957 99.4345 140.953 99.2172 140.953C98.5655 140.953 97.231 139.365 96.5793 137.839C95.2448 134.693 89.2552 127.717 86.7724 126.409C86.1828 126.097 85.0655 125.879 83.8862 125.879C82.1793 125.848 81.8379 125.941 81.1241 126.689C80.6586 127.156 79.9759 128.464 79.6034 129.648L78.8897 131.766L76.7483 131.672C75.1345 131.579 74.2966 131.703 73.5207 132.077C71.5655 133.074 71.1 133.728 70.5414 136.344C70.1379 138.213 69.9207 138.773 69.5172 138.773C69.2069 138.773 68.8034 138.555 68.5552 138.275C67.9966 137.621 65.3276 136.282 64.5517 136.282C63.4966 136.282 61.5724 137.434 60.5793 138.618C59.5552 139.863 58.9655 141.576 58.9655 143.227C58.9655 144.504 58.5931 144.722 57.1345 144.317C54.6828 143.632 51.9517 144.753 50.8655 146.933C50.2759 148.086 50.2138 148.584 50.369 151.107C50.4931 153.069 50.8345 154.813 51.4552 156.713C51.9517 158.239 52.6034 160.388 52.9138 161.509C53.4724 163.627 54.6517 167.115 56.2034 171.195C56.7 172.503 57.3517 174.341 57.6 175.244C58.3759 177.798 59.4931 179.854 61.3241 181.94C62.2552 182.999 63 184.027 63 184.276C63 185.024 61.8207 186.674 61.169 186.892C60.4862 187.11 58.6552 186.207 54.6828 183.685C53.7828 183.093 51.8276 182.003 50.3379 181.224C46.4586 179.168 40.1276 173.874 37.0862 170.136C36.3103 169.171 35.3793 168.174 35.0379 167.956C34.0448 167.24 31.0345 163.658 30.3828 162.381C29.3897 160.45 29.5759 159.921 32.2138 156.837C33.5172 155.28 35.5034 152.913 36.5897 151.605C37.6759 150.297 39.6931 147.93 41.0897 146.404C43.6345 143.601 46.5828 140.144 50.1207 135.877C51.1448 134.631 52.9138 132.638 54.031 131.454C57.1345 128.153 57.5379 127.623 58.6241 124.914C59.5552 122.671 59.6793 122.048 59.8966 117.75C60.2379 111.459 61.4172 105.261 63.1241 100.62C63.3724 99.9353 63.869 98.2535 64.2724 96.9142C64.6448 95.5438 65.4517 93.3014 66.0724 91.931C68.3069 86.8855 72.4966 79.7533 73.769 78.7566C74.2655 78.3517 75.4759 76.7322 77.7103 73.3685C78.4552 72.2473 79.3552 71.0638 79.7586 70.7212C80.131 70.3786 80.9379 69.3196 81.5276 68.3853C82.1172 67.4509 82.9241 66.3297 83.3276 65.8937C84.2586 64.8347 86.7414 60.6924 88.2 57.6714C88.8828 56.301 89.8448 54.588 90.3724 53.8094C91.3034 52.4701 91.3655 52.439 92.7 52.5947C93.6621 52.6882 94.3759 53.0307 95.0276 53.6225ZM60.7345 98.6584C60.6724 99.219 60.3 100.745 59.9586 102.022C57.569 110.462 57.3517 111.739 57.2897 117.283C57.2276 120.989 57.1345 121.799 56.3586 124.01C55.5517 126.346 55.3345 126.658 53.131 128.682C51.8276 129.897 49.7793 131.641 48.569 132.607C47.3897 133.541 46.1172 134.631 45.7759 135.036C45.4345 135.41 44.3172 136.157 43.2931 136.655C42.269 137.185 41.0276 137.932 40.5621 138.337C40.0655 138.742 39.5069 139.085 39.3207 139.085C39.1345 139.085 37.4276 139.801 35.5655 140.704C32.6172 142.106 31.9034 142.324 30.2897 142.324C26.8759 142.324 23.8345 140.704 24.331 139.178C24.4241 138.867 26.6276 136.718 29.2345 134.413C39.2276 125.537 40.0034 124.602 45.9621 114.511C49.0034 109.341 51.4552 106.227 56.7621 100.714C59.9276 97.4125 61.0138 96.8831 60.7345 98.6584ZM85.531 128.059C86.8655 128.713 90.4966 132.575 92.2966 135.285C94.3448 138.368 97.9759 144.815 99.0931 147.338C100.024 149.487 100.055 149.612 100.055 154.408C100.055 159.08 100.024 159.36 99.3414 160.077C98.4724 161.011 97.3241 161.322 96.4862 160.855C95.7414 160.481 94.3448 157.554 93.6 154.813C93.3207 153.785 92.7 152.041 92.2655 150.92C91.2103 148.335 84.7862 138.337 82.2103 135.285C81.0621 133.946 80.7517 132.139 81.2793 130.115C81.931 127.748 83.3897 127.032 85.531 128.059ZM77.8966 134.351C79.1379 134.974 82.1483 138.462 83.5138 140.86C84.0414 141.763 85.2207 143.57 86.1517 144.878C87.9207 147.338 90.5897 152.851 92.3586 157.616C93.2586 159.983 93.4138 160.824 93.4138 163.035C93.4138 166.181 92.8241 167.364 90.8069 168.33C87.9517 169.732 86.9276 169.077 85.9655 165.371C85.1586 162.101 80.969 155.031 76.4069 149.207C73.4586 145.438 72.4966 143.258 72.3414 140.081C72.2172 136.967 72.4345 135.659 73.2724 134.6C73.8 133.946 74.1724 133.79 75.3517 133.79C76.1586 133.79 77.3069 134.039 77.8966 134.351ZM66.6 139.77C67.2207 140.331 68.8655 142.448 70.231 144.535C71.5966 146.591 73.3655 149.113 74.1414 150.141C79.0759 156.557 83.3586 164.437 84.2586 168.673C84.9103 171.818 84.8483 172.348 83.6069 174.466C82.3034 176.708 81.2793 177.393 79.2931 177.393C77.4 177.393 76.2517 176.677 75.2897 174.87C74.8552 174.092 74.2655 173.251 73.9862 173.002C73.7069 172.784 72.5586 170.697 71.4103 168.361C70.2621 166.056 68.2138 161.976 66.8793 159.329C64.6759 155 63.4345 152.321 61.8207 148.273C61.4793 147.432 61.3241 145.999 61.2931 143.819V140.58L62.3172 139.676C63.7138 138.431 65.1103 138.462 66.6 139.77ZM103.252 144.255C103.159 145.127 102.848 145.937 102.476 146.342L101.824 146.964L101.203 145.906C100.024 144.006 100.521 142.853 102.538 142.822C103.407 142.822 103.438 142.853 103.252 144.255ZM56.9793 146.653C58.1586 147.338 60.0828 149.861 60.8276 151.73C61.6966 153.91 64.4586 159.547 66.6931 163.689C67.5621 165.309 69.5172 169.233 71.069 172.379C74.3276 179.075 74.5138 180.103 72.869 181.722C69.8897 184.619 66.0414 184.65 63.5586 181.754C62.4103 180.445 61.6966 178.982 60.1759 175.057C59.8345 174.185 59.2448 172.877 58.8414 172.099C58.4379 171.32 57.3828 168.361 56.5138 165.465C55.6448 162.599 54.5276 159.236 54.031 157.99C53.5345 156.744 52.9759 155.124 52.7897 154.408C52.3862 152.975 52.2931 148.584 52.6345 147.712C53.1 146.466 55.6138 145.874 56.9793 146.653Z" fill="#540030" fill-opacity="0.5"/>
</svg>
