<svg width="214" height="214" viewBox="0 0 214 214" fill="none" xmlns="http://www.w3.org/2000/svg">
<path d="M45.9421 104.257L29.4861 101.306C26.7595 100.817 24.1528 102.631 23.6639 105.357C23.1748 108.084 24.9888 110.69 27.7154 111.179L44.1715 114.131C46.898 114.62 49.5047 112.806 49.9937 110.079C50.4827 107.353 48.6687 104.746 45.9421 104.257Z" fill="#540030" fill-opacity="0.5"/>
<path d="M52.9633 69.5678L39.5089 59.6432C37.2797 57.9992 34.1395 58.4729 32.4954 60.7021C30.8514 62.9312 31.3251 66.0715 33.5543 67.7156L47.0086 77.6395C49.2378 79.2835 52.3781 78.8098 54.0221 76.5806C55.6668 74.3522 55.1924 71.2119 52.9633 69.5678Z" fill="#540030" fill-opacity="0.5"/>
<path d="M65.3716 50.2222C66.5691 52.7203 69.5646 53.7743 72.0627 52.5768C74.5607 51.3793 75.6147 48.3838 74.4172 45.8857L67.1906 30.8103C65.9931 28.3122 62.9976 27.2582 60.4995 28.4558C58.0014 29.6532 56.9475 32.6487 58.1443 35.1468L65.3716 50.2222Z" fill="#540030" fill-opacity="0.5"/>
<path d="M190.728 104.985C190.239 102.258 187.632 100.444 184.905 100.933L168.449 103.885C165.723 104.374 163.909 106.981 164.398 109.707C164.887 112.434 167.493 114.248 170.22 113.759L186.676 110.807C189.403 110.318 191.217 107.711 190.728 104.985Z" fill="#540030" fill-opacity="0.5"/>
<path d="M168.748 76.4461L181.612 65.767C183.743 63.9976 184.037 60.8357 182.267 58.7041C180.498 56.5725 177.336 56.2791 175.204 58.0486L162.341 68.7277C160.21 70.4971 159.916 73.659 161.685 75.7906C163.454 77.9222 166.616 78.2156 168.748 76.4461Z" fill="#540030" fill-opacity="0.5"/>
<path d="M151.81 28.4567C149.312 27.2592 146.316 28.3138 145.119 30.8112L137.892 45.8873C136.695 48.3854 137.749 51.3809 140.247 52.5784C142.745 53.7758 145.74 52.7212 146.938 50.2238L154.164 35.1477C155.363 32.6496 154.308 29.6542 151.81 28.4567Z" fill="#540030" fill-opacity="0.5"/>
<path d="M107.093 40.125H107.116C109.844 40.1034 112.037 37.8757 112.016 35.1477L111.888 18.277C111.866 15.5483 109.638 13.3534 106.909 13.375H106.886C104.158 13.3966 101.964 15.625 101.985 18.3523L102.114 35.2229C102.136 37.9516 104.364 40.1466 107.093 40.125Z" fill="#540030" fill-opacity="0.5"/>
<path d="M150.458 93.6571C150.046 90.176 147.945 87.1396 144.833 85.5312C142.42 84.2863 139.679 84.0286 137.08 84.7865L141.181 76.7586C143.979 71.279 141.81 64.5234 136.343 61.6986C133.672 60.3207 130.629 60.0678 127.769 60.988C126.903 61.266 126.095 61.6526 125.339 62.1151C125.267 61.2896 125.114 60.4662 124.856 59.6575C123.947 56.8049 121.979 54.4768 119.319 53.1038C116.66 51.7307 113.623 51.4744 110.77 52.3835C109.704 52.7234 108.711 53.2117 107.813 53.8283C107.43 50.1995 105.295 46.8246 101.818 45.0286C96.3275 42.1975 89.5516 44.3528 86.7143 49.8436L76.4642 69.6903C72.2616 71.5712 68.8328 74.9986 66.9951 79.4492L59.4341 97.7551C56.9674 103.724 57.8437 110.644 61.7196 115.811L83.2409 144.507C83.4561 144.794 83.5753 145.149 83.5753 145.508V182.548C83.5753 186.119 85.8303 189.291 89.1851 190.443C93.6274 191.972 100.797 193.787 109.788 193.787C116.185 193.787 123.506 192.867 131.418 190.272C134.804 189.16 137.08 185.979 137.08 182.357V152.422C137.08 151.01 137.681 149.656 138.729 148.708C142.594 145.206 149.257 137.468 150.468 124.823V95.1879C150.468 94.9399 150.493 93.9577 150.457 93.6567L150.458 93.6571ZM133.638 91.5895C134.512 89.8863 136.002 88.6262 137.827 88.0416C139.652 87.462 141.597 87.6201 143.298 88.502C145.421 89.5978 146.856 91.671 147.136 94.0486C147.157 94.2116 147.125 94.9402 147.125 95.1882L147.126 97.1616L147.134 124.662C146.038 136.026 139.991 143.052 136.485 146.228C136.331 146.368 136.215 146.54 136.072 146.69C134.634 148.204 133.786 150.19 133.752 152.286C133.751 152.331 133.737 152.375 133.737 152.421V182.356C133.737 184.531 132.387 186.435 130.377 187.095C112.273 193.035 97.4801 189.759 90.2736 187.283C88.2674 186.592 86.9201 184.69 86.9201 182.548V145.506C86.9201 144.428 86.5627 143.359 85.9162 142.499L64.395 113.805C61.224 109.577 60.5079 103.914 62.5239 99.0305L70.0849 80.7245C70.9661 78.5915 72.2939 76.7461 73.9322 75.2722C75.3596 73.9876 77.037 73.0179 78.8503 72.3589C80.4706 71.7703 82.1948 71.422 83.9906 71.422H88.5966C91.2186 71.4213 94.1228 71.4206 97.0396 71.4199H97.2444C98.437 71.4199 99.6275 71.4192 100.804 71.4192H101.009C102.021 71.4192 103.016 71.4185 103.99 71.4185L102.865 73.5772C102.409 74.4494 102.442 75.4727 102.953 76.3136C103.462 77.1544 104.354 77.6573 105.338 77.6573H115.402C115.426 77.6573 115.449 77.6518 115.473 77.6518C115.352 77.9234 115.223 78.1916 115.08 78.4536C115.069 78.4745 115.058 78.4968 115.047 78.5177C114.528 79.4553 113.868 80.3219 113.077 81.091C110.961 83.1517 108.172 84.2912 105.204 84.2209L97.4667 84.1527C95.7893 84.1722 94.2246 84.9956 93.2843 86.3763C93.2035 86.4954 93.0969 86.5902 93.0259 86.7177L88.4122 94.9893L87.9434 95.8294C87.1799 97.199 87.0942 98.8102 87.71 100.253C87.7114 100.256 87.7114 100.261 87.7135 100.264C87.997 100.925 88.4198 101.491 88.9284 101.96C89.3728 102.369 89.8967 102.679 90.4693 102.904C90.6588 102.977 90.8385 103.07 91.0384 103.122C91.106 103.139 93.23 103.703 96.1027 104.917C96.6022 105.129 97.1261 105.363 97.6638 105.613C98.1591 105.845 98.667 106.093 99.1839 106.359C100.809 107.195 102.51 108.206 104.127 109.404C104.598 109.753 105.061 110.117 105.513 110.498C105.685 110.643 105.854 110.791 106.023 110.94C106.321 111.206 106.615 111.48 106.9 111.761C107.21 112.065 107.509 112.379 107.8 112.701C108.544 113.525 109.226 114.405 109.81 115.349C110.133 115.87 110.419 116.413 110.679 116.97C110.918 117.481 111.138 118.002 111.319 118.545C111.845 120.129 112.107 121.851 112.017 123.717V136.64C112.017 137.564 112.764 138.312 113.689 138.312C114.613 138.312 115.361 137.564 115.361 136.64V134.666L115.359 123.799C115.48 121.299 115.092 119.038 114.357 116.984C114.689 116.68 115.007 116.357 115.274 115.979L115.959 115.013C116.697 114.931 117.432 114.8 118.156 114.568C118.87 114.339 119.551 114.043 120.192 113.687C120.28 115.049 120.631 116.378 121.222 117.603L120.531 119.543C119.641 122.037 120.407 124.763 122.288 126.485C122.699 126.862 123.145 127.206 123.658 127.471C124.595 127.955 125.607 128.187 126.61 128.187C128.657 128.187 130.666 127.22 131.912 125.463L133.578 123.113C133.68 123.084 133.783 123.073 133.884 123.04C136.564 122.182 138.747 120.327 140.031 117.822L143.776 110.513C144.198 109.691 143.872 108.684 143.051 108.263C142.228 107.841 141.221 108.166 140.801 108.988L137.055 116.297C136.671 117.049 136.15 117.695 135.551 118.255C135.529 118.014 135.515 117.774 135.457 117.537C135.119 116.152 134.199 114.983 132.933 114.329L132.692 114.204L129.031 112.312C127.766 111.661 126.285 111.586 124.967 112.107C124.429 112.319 123.956 112.641 123.531 113.016C123.53 111.911 123.754 110.793 124.293 109.745L124.413 109.511C124.512 109.34 124.618 109.173 124.709 108.996L128.84 100.913L133.638 91.5895ZM107.781 71.3772H119.672C119.633 71.4796 119.579 71.573 119.532 71.6712C119.2 72.3789 118.7 72.9801 118.085 73.428C117.909 73.5555 117.725 73.6698 117.533 73.7715C117.516 73.7805 117.5 73.7917 117.483 73.8007C117.131 73.9819 116.755 74.1114 116.364 74.1971C116.05 74.2661 115.73 74.3142 115.401 74.3142H106.252L107.761 71.4169L107.781 71.3772ZM103.585 104.947C102.771 104.449 101.959 103.987 101.161 103.569L101.588 102.967C102.29 102.813 102.981 102.614 103.642 102.329C103.519 103.204 103.501 104.081 103.585 104.947ZM92.241 97.4998C92.3629 97.155 92.6137 96.9014 92.9181 96.7162C92.9968 96.6681 93.0588 96.5991 93.1473 96.5643C93.5736 96.3943 94.039 96.4138 94.4486 96.6298L98.3511 98.6465C98.7642 98.859 99.0512 99.2247 99.1605 99.6734C99.1766 99.7409 99.1584 99.8064 99.1661 99.874C99.2093 100.257 99.1417 100.638 98.9139 100.96L98.1017 102.106C94.7642 100.651 92.1867 99.9645 91.8705 99.883C91.7103 99.8419 91.5738 99.7813 91.4533 99.7109L92.241 97.4998ZM102.448 99.1696C102.43 99.0742 102.433 98.9774 102.41 98.8826C102.072 97.4977 101.153 96.3289 99.8864 95.6748L95.9839 93.658C95.1389 93.2219 94.1929 93.0673 93.2614 93.1557L95.9441 88.3448C96.243 87.8091 96.8783 87.4929 97.4265 87.4957L105.164 87.5646C107.172 87.5981 109.14 87.1982 110.96 86.4291L106.196 95.6531C105.353 97.2845 104.003 98.4647 102.448 99.1696ZM108.136 108.117L108.651 106.67C108.804 106.236 109.128 105.902 109.557 105.735C109.747 105.659 109.943 105.622 110.137 105.622C110.385 105.622 110.63 105.68 110.859 105.799L114.761 107.814C115.174 108.026 115.461 108.392 115.571 108.843C115.68 109.294 115.592 109.749 115.324 110.128L114.183 111.737L112.795 113.695C112.056 112.475 111.191 111.349 110.24 110.31C109.648 109.664 109.026 109.051 108.378 108.473C108.285 108.39 108.19 108.311 108.096 108.228L108.136 108.117ZM131.399 117.299C131.812 117.511 132.099 117.877 132.209 118.326C132.318 118.777 132.23 119.233 131.962 119.612L131.596 120.129L129.247 123.442L129.185 123.529C128.287 124.795 126.574 125.216 125.194 124.499C124.909 124.351 124.664 124.157 124.445 123.941C123.638 123.144 123.307 121.952 123.64 120.829C123.656 120.775 123.663 120.719 123.682 120.666L124.903 117.235L125.287 116.155C125.444 115.718 125.766 115.385 126.195 115.215C126.384 115.142 126.581 115.105 126.776 115.105C127.022 115.105 127.269 115.163 127.497 115.282L130.475 116.821L131.399 117.299ZM128.793 64.1699C129.587 63.915 130.402 63.7896 131.211 63.7896C132.449 63.7896 133.678 64.0849 134.81 64.6694C138.645 66.6512 140.168 71.391 138.205 75.2364L125.712 99.6859L121.584 107.705C120.896 108.945 119.913 109.958 118.714 110.661C118.974 109.822 119.033 108.926 118.821 108.054C118.483 106.667 117.564 105.498 116.297 104.844L112.395 102.829C111.136 102.179 109.652 102.102 108.331 102.625C107.791 102.837 107.317 103.16 106.892 103.536C106.94 102.445 107.197 101.349 107.726 100.316L120.115 76.0701C121.297 75.1909 122.249 73.9984 122.795 72.5731C123.04 71.9371 123.056 71.2572 122.904 70.6122L123.777 68.9034L124.137 68.2054C124.149 68.1824 124.157 68.1587 124.169 68.1357L124.198 68.08C125.156 66.2039 126.788 64.8143 128.793 64.1691L128.793 64.1699ZM111.788 55.5694C113.792 54.9314 115.921 55.1104 117.786 56.0759C119.654 57.0393 121.034 58.6722 121.672 60.6735C122.305 62.6637 122.13 64.7807 121.179 66.6393L120.819 67.3442L120.415 68.1251C120.173 68.0701 119.926 68.0339 119.673 68.0339H106.769C106.667 68.0339 106.571 68.0569 106.473 68.075C105.279 68.0757 104.025 68.0757 102.737 68.0764L107.19 59.4543C108.153 57.5866 109.786 56.2074 111.788 55.5693L111.788 55.5694ZM89.6867 51.3779C91.6755 47.5263 96.4299 46.0097 100.284 48.0001C104.137 49.9889 105.653 54.7432 103.662 58.5963L98.7657 68.0765C95.2784 68.0772 91.7354 68.0779 88.5959 68.0786H83.9899C82.9491 68.0786 81.9266 68.174 80.9247 68.3412L89.6867 51.3779Z" fill="#540030" fill-opacity="0.5"/>
</svg>
