<svg width="247" height="247" viewBox="0 0 247 247" fill="none" xmlns="http://www.w3.org/2000/svg">
<path d="M53.0263 120.334L34.0327 116.928C30.8857 116.363 27.877 118.457 27.3126 121.604C26.7482 124.751 28.8419 127.76 31.9889 128.324L50.9826 131.731C54.1296 132.295 57.1383 130.201 57.7027 127.054C58.2671 123.907 56.1734 120.899 53.0263 120.334Z" fill="#540030" fill-opacity="0.5"/>
<path d="M61.1307 80.2956L45.6016 68.8405C43.0287 66.943 39.4041 67.4898 37.5066 70.0627C35.609 72.6356 36.1558 76.2601 38.7287 78.1577L54.2578 89.6119C56.8307 91.5094 60.4552 90.9627 62.3528 88.3898C64.2512 85.8177 63.7036 82.1931 61.1307 80.2956Z" fill="#540030" fill-opacity="0.5"/>
<path d="M75.4526 57.9667C76.8347 60.85 80.2921 62.0665 83.1754 60.6843C86.0588 59.3021 87.2752 55.8448 85.8931 52.9615L77.5521 35.5613C76.17 32.678 72.7125 31.4615 69.8292 32.8437C66.9459 34.2258 65.7294 37.6833 67.1108 40.5666L75.4526 57.9667Z" fill="#540030" fill-opacity="0.5"/>
<path d="M220.139 121.174C219.575 118.027 216.566 115.933 213.419 116.498L194.425 119.904C191.278 120.469 189.185 123.477 189.749 126.624C190.314 129.771 193.322 131.865 196.469 131.301L215.463 127.894C218.61 127.33 220.704 124.321 220.139 121.174Z" fill="#540030" fill-opacity="0.5"/>
<path d="M194.77 88.2347L209.617 75.9088C212.077 73.8665 212.416 70.2171 210.374 67.7567C208.332 65.2964 204.682 64.9578 202.222 67.0001L187.375 79.3261C184.915 81.3683 184.576 85.0178 186.618 87.4781C188.66 89.9384 192.31 90.277 194.77 88.2347Z" fill="#540030" fill-opacity="0.5"/>
<path d="M175.22 32.8448C172.337 31.4626 168.879 32.6799 167.497 35.5624L159.156 52.9633C157.774 55.8466 158.991 59.304 161.874 60.6862C164.757 62.0683 168.214 60.851 169.597 57.9686L177.938 40.5676C179.32 37.6843 178.103 34.2269 175.22 32.8448Z" fill="#540030" fill-opacity="0.5"/>
<path d="M123.607 46.3124H123.634C126.782 46.2875 129.314 43.7163 129.29 40.5676L129.141 21.0954C129.116 17.9459 126.544 15.4125 123.395 15.4374H123.368C120.22 15.4624 117.688 18.0344 117.712 21.1822L117.861 40.6545C117.886 43.8039 120.458 46.3373 123.607 46.3124Z" fill="#540030" fill-opacity="0.5"/>
<path d="M173.659 108.1C173.184 104.082 170.759 100.577 167.167 98.7207C164.382 97.2838 161.218 96.9864 158.218 97.8611L162.952 88.5954C166.182 82.2707 163.677 74.4733 157.368 71.2129C154.285 69.6225 150.772 69.3307 147.471 70.3928C146.472 70.7136 145.539 71.1599 144.667 71.6937C144.584 70.741 144.407 69.7906 144.109 68.8572C143.06 65.5646 140.789 62.8775 137.719 61.2928C134.649 59.708 131.144 59.4121 127.852 60.4614C126.621 60.8538 125.475 61.4174 124.438 62.129C123.996 57.9407 121.532 54.0453 117.519 51.9723C111.182 48.7047 103.361 51.1924 100.086 57.5298L88.2553 80.437C83.4046 82.6079 79.447 86.5639 77.3259 91.7008L68.599 112.83C65.7519 119.719 66.7634 127.706 71.237 133.67L96.0769 166.791C96.3254 167.122 96.4629 167.531 96.4629 167.946V210.698C96.4629 214.819 99.0656 218.481 102.938 219.811C108.065 221.575 116.34 223.67 126.718 223.67C134.101 223.67 142.551 222.609 151.683 219.613C155.592 218.33 158.218 214.659 158.218 210.477V175.926C158.218 174.296 158.912 172.734 160.122 171.639C164.582 167.597 172.273 158.667 173.671 144.072V109.867C173.671 109.58 173.699 108.447 173.658 108.099L173.659 108.1ZM154.245 105.713C155.255 103.747 156.974 102.293 159.08 101.618C161.187 100.949 163.432 101.132 165.395 102.15C167.845 103.414 169.502 105.807 169.826 108.551C169.849 108.74 169.813 109.581 169.813 109.867L169.814 112.145L169.822 143.886C168.558 157.002 161.578 165.112 157.532 168.778C157.353 168.939 157.22 169.137 157.055 169.311C155.395 171.058 154.416 173.35 154.377 175.77C154.376 175.822 154.36 175.872 154.36 175.925V210.477C154.36 212.987 152.802 215.184 150.482 215.946C129.586 222.802 112.512 219.021 104.194 216.163C101.879 215.366 100.323 213.17 100.323 210.698V167.944C100.323 166.7 99.911 165.466 99.1648 164.473L74.3249 131.354C70.665 126.474 69.8383 119.939 72.1653 114.302L80.8922 93.1728C81.9093 90.7108 83.4419 88.5809 85.3328 86.8797C86.9803 85.397 88.9164 84.2777 91.0093 83.5172C92.8795 82.8378 94.8695 82.4357 96.9423 82.4357H102.259C105.285 82.4349 108.637 82.4341 112.003 82.4333H112.24C113.616 82.4333 114.99 82.4325 116.349 82.4325H116.585C117.753 82.4325 118.901 82.4317 120.025 82.4317L118.727 84.9233C118.201 85.93 118.239 87.1111 118.829 88.0816C119.417 89.0521 120.446 89.6326 121.582 89.6326H133.198C133.225 89.6326 133.252 89.6262 133.279 89.6262C133.14 89.9398 132.991 90.2493 132.826 90.5517C132.813 90.5758 132.801 90.6015 132.788 90.6256C132.188 91.7079 131.427 92.708 130.514 93.5958C128.071 95.9742 124.853 97.2895 121.427 97.2084L112.496 97.1296C110.56 97.1521 108.754 98.1025 107.669 99.6961C107.576 99.8336 107.453 99.943 107.371 100.09L102.046 109.637L101.505 110.607C100.623 112.188 100.524 114.047 101.235 115.713C101.237 115.717 101.237 115.721 101.239 115.725C101.566 116.489 102.055 117.141 102.641 117.683C103.154 118.155 103.759 118.512 104.42 118.772C104.639 118.857 104.846 118.964 105.077 119.024C105.155 119.044 107.606 119.695 110.922 121.096C111.499 121.34 112.103 121.61 112.724 121.9C113.296 122.167 113.882 122.453 114.478 122.76C116.354 123.726 118.318 124.892 120.184 126.274C120.727 126.677 121.261 127.098 121.783 127.537C121.982 127.705 122.177 127.875 122.372 128.048C122.717 128.355 123.055 128.67 123.385 128.995C123.742 129.347 124.087 129.708 124.423 130.08C125.282 131.031 126.069 132.047 126.743 133.137C127.115 133.738 127.446 134.365 127.747 135.008C128.022 135.597 128.276 136.199 128.485 136.825C129.092 138.653 129.394 140.641 129.29 142.795V157.711C129.29 158.778 130.153 159.64 131.22 159.64C132.287 159.64 133.15 158.778 133.15 157.711V155.432L133.148 142.889C133.287 140.004 132.84 137.394 131.992 135.023C132.375 134.673 132.741 134.3 133.05 133.864L133.84 132.749C134.692 132.654 135.541 132.503 136.376 132.236C137.2 131.971 137.986 131.629 138.726 131.218C138.828 132.79 139.233 134.324 139.915 135.738L139.118 137.977C138.09 140.856 138.974 144.002 141.146 145.99C141.619 146.424 142.134 146.822 142.726 147.128C143.808 147.686 144.976 147.954 146.134 147.954C148.497 147.954 150.815 146.838 152.253 144.811L154.176 142.098C154.294 142.064 154.413 142.051 154.529 142.014C157.623 141.023 160.143 138.882 161.624 135.991L165.947 127.554C166.434 126.606 166.058 125.444 165.11 124.957C164.161 124.471 162.998 124.846 162.513 125.794L158.19 134.231C157.746 135.099 157.145 135.845 156.454 136.49C156.428 136.213 156.411 135.936 156.345 135.662C155.955 134.063 154.893 132.714 153.432 131.959L153.154 131.815L148.928 129.631C147.468 128.88 145.759 128.793 144.238 129.394C143.616 129.639 143.07 130.011 142.58 130.443C142.579 129.168 142.837 127.878 143.459 126.668L143.598 126.398C143.713 126.201 143.835 126.008 143.94 125.803L148.707 116.474L154.245 105.713ZM124.401 82.3841H138.126C138.081 82.5023 138.018 82.61 137.965 82.7234C137.581 83.5403 137.005 84.2342 136.294 84.7512C136.091 84.8983 135.878 85.0302 135.657 85.1476C135.637 85.158 135.619 85.1709 135.599 85.1813C135.193 85.3904 134.759 85.5399 134.308 85.6388C133.945 85.7184 133.576 85.7739 133.197 85.7739H122.636L124.378 82.4299L124.401 82.3841ZM119.558 121.13C118.619 120.555 117.681 120.023 116.76 119.541L117.253 118.845C118.064 118.667 118.861 118.437 119.624 118.109C119.482 119.119 119.461 120.131 119.558 121.13ZM106.465 112.535C106.606 112.137 106.895 111.844 107.246 111.63C107.337 111.575 107.409 111.495 107.511 111.455C108.003 111.259 108.54 111.281 109.013 111.531L113.517 113.859C113.994 114.104 114.325 114.526 114.451 115.044C114.47 115.122 114.449 115.197 114.458 115.275C114.508 115.717 114.43 116.157 114.167 116.529L113.229 117.851C109.377 116.172 106.402 115.38 106.037 115.286C105.852 115.238 105.695 115.168 105.556 115.087L106.465 112.535ZM118.246 114.462C118.225 114.352 118.229 114.24 118.202 114.131C117.812 112.533 116.751 111.183 115.289 110.428L110.785 108.101C109.81 107.597 108.718 107.419 107.643 107.521L110.739 101.968C111.084 101.35 111.817 100.985 112.45 100.988L121.381 101.068C123.699 101.106 125.97 100.645 128.07 99.7571L122.572 110.403C121.599 112.286 120.04 113.649 118.246 114.462ZM124.811 124.789L125.406 123.119C125.583 122.618 125.956 122.233 126.452 122.039C126.67 121.953 126.896 121.909 127.121 121.909C127.407 121.909 127.69 121.977 127.954 122.114L132.458 124.44C132.935 124.685 133.266 125.107 133.392 125.627C133.518 126.147 133.416 126.673 133.108 127.111L131.791 128.968L130.188 131.228C129.336 129.819 128.337 128.519 127.239 127.32C126.556 126.575 125.838 125.868 125.09 125.2C124.983 125.104 124.873 125.013 124.765 124.918L124.811 124.789ZM151.662 135.387C152.138 135.632 152.47 136.055 152.596 136.572C152.722 137.093 152.62 137.62 152.311 138.057L151.889 138.653L149.178 142.477L149.106 142.579C148.07 144.039 146.093 144.525 144.499 143.698C144.17 143.527 143.887 143.303 143.635 143.054C142.703 142.133 142.322 140.757 142.706 139.462C142.725 139.399 142.733 139.335 142.754 139.273L144.163 135.313L144.607 134.066C144.788 133.563 145.159 133.179 145.655 132.982C145.873 132.898 146.101 132.855 146.325 132.855C146.61 132.855 146.894 132.922 147.158 133.06L150.595 134.836L151.662 135.387ZM148.654 74.0654C149.57 73.7711 150.51 73.6264 151.445 73.6264C152.873 73.6264 154.292 73.9673 155.598 74.6419C160.025 76.9293 161.783 82.4 159.516 86.8383L145.097 115.058L140.333 124.314C139.539 125.745 138.405 126.914 137.02 127.726C137.32 126.757 137.388 125.724 137.144 124.716C136.754 123.116 135.693 121.767 134.231 121.011L129.727 118.686C128.274 117.936 126.56 117.847 125.036 118.45C124.413 118.696 123.866 119.068 123.376 119.502C123.43 118.243 123.728 116.978 124.337 115.786L138.637 87.8006C140.002 86.7859 141.101 85.4094 141.731 83.7644C142.013 83.0303 142.032 82.2456 141.856 81.5011L142.864 79.5288L143.28 78.7231C143.293 78.6966 143.303 78.6692 143.317 78.6427L143.349 78.5784C144.455 76.413 146.34 74.8092 148.654 74.0645L148.654 74.0654ZM129.026 64.1387C131.34 63.4022 133.797 63.6088 135.949 64.7232C138.105 65.8352 139.698 67.7199 140.434 70.0298C141.165 72.3269 140.962 74.7703 139.865 76.9155L139.449 77.7292L138.984 78.6305C138.705 78.567 138.419 78.5252 138.127 78.5252H123.233C123.115 78.5252 123.004 78.5517 122.892 78.5726C121.513 78.5734 120.066 78.5734 118.579 78.5742L123.719 68.6226C124.83 66.4669 126.715 64.875 129.026 64.1385L129.026 64.1387ZM103.517 59.3008C105.812 54.8552 111.3 53.1048 115.749 55.4021C120.196 57.6975 121.945 63.185 119.647 67.6323L113.996 78.5744C109.971 78.5752 105.881 78.576 102.258 78.5768H96.9414C95.7402 78.5768 94.5599 78.6869 93.4036 78.8799L103.517 59.3008Z" fill="#540030" fill-opacity="0.5"/>
</svg>
