<svg width="24" height="24" viewBox="0 0 24 24" fill="none" xmlns="http://www.w3.org/2000/svg">
<g clip-path="url(#clip0_1111_394)">
<path d="M9 0C8.60218 0 8.22064 0.158035 7.93934 0.43934C7.65804 0.720644 7.5 1.10218 7.5 1.5V3C7.10218 3 6.72064 3.15804 6.43934 3.43934C6.15804 3.72064 6 4.10218 6 4.5V10.5H1.5C1.10218 10.5 0.720644 10.658 0.43934 10.9393C0.158035 11.2206 0 11.6022 0 12L0 22.5C0 22.8978 0.158035 23.2794 0.43934 23.5607C0.720644 23.842 1.10218 24 1.5 24H10.5V20.25C10.5 20.0511 10.579 19.8603 10.7197 19.7197C10.8603 19.579 11.0511 19.5 11.25 19.5H12.75C12.9489 19.5 13.1397 19.579 13.2803 19.7197C13.421 19.8603 13.5 20.0511 13.5 20.25V24H22.5C22.8978 24 23.2794 23.842 23.5607 23.5607C23.842 23.2794 24 22.8978 24 22.5V12C24 11.6022 23.842 11.2206 23.5607 10.9393C23.2794 10.658 22.8978 10.5 22.5 10.5H18V4.5C18 4.10218 17.842 3.72064 17.5607 3.43934C17.2794 3.15804 16.8978 3 16.5 3V1.5C16.5 1.10218 16.342 0.720644 16.0607 0.43934C15.7794 0.158035 15.3978 0 15 0L9 0ZM12.75 7.551V9.201L14.1795 8.376L14.9295 9.6765L13.5 10.5L14.9295 11.325L14.1795 12.624L12.75 11.799V13.449H11.25V11.799L9.8205 12.624L9.0705 11.325L10.5 10.5L9.0705 9.675L9.8205 8.376L11.25 9.201V7.551H12.75ZM3.375 13.5H4.125C4.22446 13.5 4.31984 13.5395 4.39016 13.6098C4.46049 13.6802 4.5 13.7755 4.5 13.875V14.625C4.5 14.7245 4.46049 14.8198 4.39016 14.8902C4.31984 14.9605 4.22446 15 4.125 15H3.375C3.27554 15 3.18016 14.9605 3.10984 14.8902C3.03951 14.8198 3 14.7245 3 14.625V13.875C3 13.7755 3.03951 13.6802 3.10984 13.6098C3.18016 13.5395 3.27554 13.5 3.375 13.5ZM3.375 16.5H4.125C4.22446 16.5 4.31984 16.5395 4.39016 16.6098C4.46049 16.6802 4.5 16.7755 4.5 16.875V17.625C4.5 17.7245 4.46049 17.8198 4.39016 17.8902C4.31984 17.9605 4.22446 18 4.125 18H3.375C3.27554 18 3.18016 17.9605 3.10984 17.8902C3.03951 17.8198 3 17.7245 3 17.625V16.875C3 16.7755 3.03951 16.6802 3.10984 16.6098C3.18016 16.5395 3.27554 16.5 3.375 16.5ZM3 19.875C3 19.7755 3.03951 19.6802 3.10984 19.6098C3.18016 19.5395 3.27554 19.5 3.375 19.5H4.125C4.22446 19.5 4.31984 19.5395 4.39016 19.6098C4.46049 19.6802 4.5 19.7755 4.5 19.875V20.625C4.5 20.7245 4.46049 20.8198 4.39016 20.8902C4.31984 20.9605 4.22446 21 4.125 21H3.375C3.27554 21 3.18016 20.9605 3.10984 20.8902C3.03951 20.8198 3 20.7245 3 20.625V19.875ZM19.875 13.5H20.625C20.7245 13.5 20.8198 13.5395 20.8902 13.6098C20.9605 13.6802 21 13.7755 21 13.875V14.625C21 14.7245 20.9605 14.8198 20.8902 14.8902C20.8198 14.9605 20.7245 15 20.625 15H19.875C19.7755 15 19.6802 14.9605 19.6098 14.8902C19.5395 14.8198 19.5 14.7245 19.5 14.625V13.875C19.5 13.7755 19.5395 13.6802 19.6098 13.6098C19.6802 13.5395 19.7755 13.5 19.875 13.5ZM19.5 16.875C19.5 16.7755 19.5395 16.6802 19.6098 16.6098C19.6802 16.5395 19.7755 16.5 19.875 16.5H20.625C20.7245 16.5 20.8198 16.5395 20.8902 16.6098C20.9605 16.6802 21 16.7755 21 16.875V17.625C21 17.7245 20.9605 17.8198 20.8902 17.8902C20.8198 17.9605 20.7245 18 20.625 18H19.875C19.7755 18 19.6802 17.9605 19.6098 17.8902C19.5395 17.8198 19.5 17.7245 19.5 17.625V16.875ZM19.875 19.5H20.625C20.7245 19.5 20.8198 19.5395 20.8902 19.6098C20.9605 19.6802 21 19.7755 21 19.875V20.625C21 20.7245 20.9605 20.8198 20.8902 20.8902C20.8198 20.9605 20.7245 21 20.625 21H19.875C19.7755 21 19.6802 20.9605 19.6098 20.8902C19.5395 20.8198 19.5 20.7245 19.5 20.625V19.875C19.5 19.7755 19.5395 19.6802 19.6098 19.6098C19.6802 19.5395 19.7755 19.5 19.875 19.5Z" fill="#8C0351"/>
</g>
<defs>
<clipPath id="clip0_1111_394">
<rect width="24" height="24" fill="white"/>
</clipPath>
</defs>
</svg>
