<svg width="24" height="24" viewBox="0 0 24 24" fill="none" xmlns="http://www.w3.org/2000/svg">
<g clip-path="url(#clip0_1111_390)">
<path fill-rule="evenodd" clip-rule="evenodd" d="M2.82723 0.766659C3.08969 0.504592 3.40485 0.301297 3.75183 0.170244C4.0988 0.0391918 4.46966 -0.0166247 4.83984 0.00649363C5.21002 0.0296119 5.57105 0.131137 5.89902 0.304341C6.227 0.477545 6.51441 0.718473 6.74223 1.01116L9.43473 4.47016C9.92823 5.10466 10.1022 5.93116 9.90723 6.71116L9.08673 9.99616C9.0446 10.1663 9.04704 10.3445 9.09381 10.5134C9.14058 10.6823 9.2301 10.8364 9.35373 10.9607L13.0392 14.6462C13.1637 14.77 13.3179 14.8597 13.4872 14.9065C13.6564 14.9533 13.8348 14.9556 14.0052 14.9132L17.2887 14.0927C17.6737 13.997 18.0753 13.9898 18.4635 14.0716C18.8516 14.1535 19.2162 14.3222 19.5297 14.5652L22.9887 17.2562C24.2322 18.2237 24.3462 20.0612 23.2332 21.1727L21.6822 22.7237C20.5722 23.8337 18.9132 24.3212 17.3667 23.7767C13.4077 22.3855 9.81354 20.1193 6.85173 17.1467C3.87929 14.1853 1.61306 10.5916 0.22173 6.63316C-0.32127 5.08816 0.16623 3.42766 1.27623 2.31766L2.82723 0.766659Z" fill="#8C0351"/>
</g>
<defs>
<clipPath id="clip0_1111_390">
<rect width="24" height="24" fill="white"/>
</clipPath>
</defs>
</svg>
